<?xml version="1.0" encoding="UTF-8" standalone="no"?>
<!-- Created with Inkscape (http://www.inkscape.org/) -->

<svg
   width="210mm"
   height="297mm"
   viewBox="0 0 210 297"
   version="1.1"
   id="svg1"
   xml:space="preserve"
   xmlns="http://www.w3.org/2000/svg"
   xmlns:svg="http://www.w3.org/2000/svg"><defs
     id="defs1" /><g
     id="layer1"><path
       style="fill:#000000"
       d="M 5.4410389,142.11041 V 50.848722 H 105.46589 205.49074 V 142.11041 233.3721 H 105.46589 5.4410389 Z m 125.4597411,72.9107 c 11.62812,-3.56874 20.82336,-12.99002 24.48187,-25.08369 l 0.78269,-2.58729 0.106,-18.64345 c 0.0784,-13.7863 0.0171,-19.01709 -0.23504,-20.07758 -1.33035,-5.59431 -7.26403,-9.80988 -13.11356,-9.31648 -0.87494,0.0738 -2.3018,0.36348 -3.17081,0.64373 l -1.58002,0.50954 -1.64182,-1.36133 c -4.01571,-3.32967 -9.11794,-4.30421 -13.6979,-2.61635 l -1.7347,0.63929 -1.5392,-1.25168 c -2.87384,-2.337 -6.72193,-3.60369 -10.09141,-3.32182 -1.02168,0.0855 -2.14021,0.22931 -2.48563,0.31966 l -0.62804,0.16426 -0.0886,-12.86866 -0.0886,-12.86866 -0.74084,-1.74146 C 101.89138,97.229039 91.959603,93.598045 83.629919,97.5873 c -2.22953,1.067766 -5.21473,3.79077 -6.38404,5.82332 -1.83841,3.19561 -1.78744,2.44063 -1.78744,26.47435 v 21.82295 l -1.50839,-0.74541 c -8.26936,-4.08648 -18.80008,0.47732 -21.25451,9.21128 -0.87433,3.11124 -0.0763,7.61565 1.81007,10.21636 0.4118,0.56776 7.20767,8.89932 15.10195,18.5146 10.34389,12.59892 14.94488,17.9951 16.47132,19.31803 4.491549,3.89275 10.176859,6.61525 15.671801,7.5047 0.39296,0.0636 6.56592,0.0984 13.7177,0.0774 l 13.00323,-0.0382 z m -27.57828,-8.77027 c -2.02162,-0.2818 -4.360413,-1.14367 -6.471837,-2.38491 -3.660407,-2.15185 -6.370391,-5.08104 -18.398894,-19.88713 -15.28307,-18.8122 -15.15524,-18.64962 -15.55801,-19.78702 -0.92197,-2.60355 1.38567,-5.39352 4.46108,-5.39352 1.92749,0 3.24406,0.85516 6.67095,4.33298 1.78153,1.80801 3.63646,3.50835 4.12206,3.77852 1.9479,1.08376 5.08189,0.37495 6.6535,-1.5048 l 0.80247,-0.95981 0.14289,-27.92041 0.14289,-27.92041 0.65743,-0.96466 c 2.479391,-3.63811 8.228621,-2.53178 9.207845,1.77186 0.247242,1.08663 0.31405,7.28308 0.251023,23.28255 -0.07852,19.9333 -0.0451,21.87181 0.390013,22.61822 1.073756,1.84196 3.329722,2.8818 5.59054,2.57686 1.09231,-0.14733 1.57544,-0.40585 2.64822,-1.41703 0.78061,-0.73578 1.3884,-1.58463 1.50037,-2.09541 0.10351,-0.47223 0.18869,-2.92665 0.18927,-5.45427 9.6e-4,-4.12579 0.0591,-4.68257 0.56896,-5.4455 1.50882,-2.25786 4.91749,-2.48228 6.44475,-0.42431 0.49862,0.6719 0.57386,1.35626 0.70143,6.3799 l 0.14289,5.62727 0.80247,0.95901 c 2.16577,2.5883 6.22144,2.60085 8.37584,0.0259 0.81388,-0.97276 0.82596,-1.03852 0.96707,-5.26519 l 0.14289,-4.28014 0.93331,-0.76038 c 1.3669,-1.11363 2.9316,-1.06707 4.23941,0.12616 l 0.97167,0.88654 v 3.97957 c 0,3.76838 0.0377,4.03826 0.71042,5.08561 1.26939,1.97628 4.14698,2.74509 6.37415,1.703 2.2676,-1.06101 2.91791,-2.23717 2.91791,-5.27736 0,-1.9613 0.0511,-2.13568 0.83537,-2.85125 1.75438,-1.60068 4.33196,-0.58365 4.73451,1.86809 0.1039,0.63281 0.13658,8.42543 0.0726,17.31692 -0.11115,15.45163 -0.14306,16.25858 -0.72161,18.25234 -1.61812,5.57625 -4.5619,10.23507 -8.82472,13.966 -3.40739,2.98223 -7.27589,4.95723 -10.67121,5.448 -2.1182,0.30618 -20.53465,0.31282 -22.71993,0.008 z M 65.312079,125.65716 c 0.60603,-0.373 1.31657,-1.18039 1.75929,-1.99905 1.05514,-1.95115 0.85898,-3.26341 -0.86577,-5.79201 -2.88031,-4.2227 -4.04837,-8.49866 -3.81214,-13.95523 0.63558,-14.681276 13.46673,-25.428188 29.640528,-24.825839 14.004893,0.521574 25.052863,9.501405 27.175073,22.087989 0.44694,2.65077 0.17536,7.43073 -0.57037,10.03879 -0.32805,1.14729 -1.45067,3.65769 -2.49473,5.57867 -2.16814,3.98922 -2.44912,5.1708 -1.59224,6.69573 1.54633,2.75192 5.07486,3.75953 7.61164,2.17359 2.45268,-1.53337 5.82552,-8.10241 7.21741,-14.05687 0.72371,-3.09598 0.7082,-9.90087 -0.03,-13.167757 -2.9267,-12.95178 -12.89529,-23.242321 -26.50259,-27.358533 -4.63168,-1.401087 -8.051332,-1.814082 -13.500649,-1.630489 -4.883322,0.164524 -7.013702,0.498895 -11.060962,1.736059 -11.64981,3.561098 -20.94565,12.183511 -24.64069,22.855603 -1.34424,3.88246 -1.74221,6.403587 -1.74374,11.046427 -0.002,4.84713 0.38072,6.9764 2.03531,11.33552 1.11813,2.94578 3.1769,6.6828 4.47038,8.11455 1.77045,1.95968 4.75582,2.44519 6.90427,1.12285 z"
       id="path1" /></g></svg>
